<mxfile host="Electron" agent="Mozilla/5.0 (Windows NT 10.0; Win64; x64) AppleWebKit/537.36 (KHTML, like Gecko) draw.io/24.7.5 Chrome/126.0.6478.183 Electron/31.3.0 Safari/537.36" version="24.7.5">
  <diagram name="Page-1" id="wLtEYfDc0Ez0qMSbw7nf">
    <mxGraphModel dx="1050" dy="669" grid="0" gridSize="10" guides="1" tooltips="1" connect="1" arrows="1" fold="1" page="1" pageScale="1" pageWidth="850" pageHeight="1100" math="0" shadow="0">
      <root>
        <mxCell id="0" />
        <mxCell id="1" parent="0" />
        <mxCell id="eX9ttQmv6U6JFkY7dbUk-1" value="" style="rounded=0;whiteSpace=wrap;html=1;" parent="1" vertex="1">
          <mxGeometry x="193" y="157" width="470" height="508" as="geometry" />
        </mxCell>
        <mxCell id="eX9ttQmv6U6JFkY7dbUk-4" value="Bệnh nhân" style="shape=umlActor;verticalLabelPosition=bottom;verticalAlign=top;html=1;" parent="1" vertex="1">
          <mxGeometry x="745" y="390" width="30" height="50" as="geometry" />
        </mxCell>
        <mxCell id="eX9ttQmv6U6JFkY7dbUk-7" value="Quản lý bác sĩ" style="ellipse;whiteSpace=wrap;html=1;" parent="1" vertex="1">
          <mxGeometry x="296" y="261" width="80" height="40" as="geometry" />
        </mxCell>
        <mxCell id="eX9ttQmv6U6JFkY7dbUk-8" value="Đăng nhập" style="ellipse;whiteSpace=wrap;html=1;" parent="1" vertex="1">
          <mxGeometry x="422" y="436" width="80" height="40" as="geometry" />
        </mxCell>
        <mxCell id="eX9ttQmv6U6JFkY7dbUk-9" value="Quét ảnh da liễu" style="ellipse;whiteSpace=wrap;html=1;" parent="1" vertex="1">
          <mxGeometry x="552" y="301" width="80" height="40" as="geometry" />
        </mxCell>
        <mxCell id="eX9ttQmv6U6JFkY7dbUk-11" value="Quản lý bệnh nhân" style="ellipse;whiteSpace=wrap;html=1;" parent="1" vertex="1">
          <mxGeometry x="296" y="494" width="80" height="40" as="geometry" />
        </mxCell>
        <mxCell id="eX9ttQmv6U6JFkY7dbUk-12" value="Quản lý lịch hẹn" style="ellipse;whiteSpace=wrap;html=1;" parent="1" vertex="1">
          <mxGeometry x="296" y="438" width="80" height="40" as="geometry" />
        </mxCell>
        <mxCell id="eX9ttQmv6U6JFkY7dbUk-13" value="Đặt lịch hẹn" style="ellipse;whiteSpace=wrap;html=1;" parent="1" vertex="1">
          <mxGeometry x="558" y="390" width="80" height="40" as="geometry" />
        </mxCell>
        <mxCell id="eX9ttQmv6U6JFkY7dbUk-31" value="" style="endArrow=open;endFill=1;endSize=12;html=1;rounded=0;entryX=1;entryY=0.5;entryDx=0;entryDy=0;exitX=0.5;exitY=0.5;exitDx=0;exitDy=0;exitPerimeter=0;" parent="1" target="eX9ttQmv6U6JFkY7dbUk-9" edge="1" source="eX9ttQmv6U6JFkY7dbUk-4">
          <mxGeometry width="160" relative="1" as="geometry">
            <mxPoint x="737" y="376" as="sourcePoint" />
            <mxPoint x="592" y="346" as="targetPoint" />
          </mxGeometry>
        </mxCell>
        <mxCell id="eX9ttQmv6U6JFkY7dbUk-32" value="" style="endArrow=open;endFill=1;endSize=12;html=1;rounded=0;entryX=1;entryY=0.5;entryDx=0;entryDy=0;exitX=0.5;exitY=0.5;exitDx=0;exitDy=0;exitPerimeter=0;" parent="1" target="eX9ttQmv6U6JFkY7dbUk-13" edge="1" source="eX9ttQmv6U6JFkY7dbUk-4">
          <mxGeometry width="160" relative="1" as="geometry">
            <mxPoint x="737" y="376" as="sourcePoint" />
            <mxPoint x="602" y="356" as="targetPoint" />
          </mxGeometry>
        </mxCell>
        <mxCell id="eX9ttQmv6U6JFkY7dbUk-40" value="include" style="html=1;verticalAlign=bottom;endArrow=open;dashed=1;endSize=8;curved=0;rounded=0;exitX=1;exitY=0.5;exitDx=0;exitDy=0;entryX=0;entryY=0.5;entryDx=0;entryDy=0;" parent="1" source="eX9ttQmv6U6JFkY7dbUk-11" target="eX9ttQmv6U6JFkY7dbUk-8" edge="1">
          <mxGeometry relative="1" as="geometry">
            <mxPoint x="522" y="536" as="sourcePoint" />
            <mxPoint x="424" y="442" as="targetPoint" />
          </mxGeometry>
        </mxCell>
        <mxCell id="eX9ttQmv6U6JFkY7dbUk-41" value="Quản trị viên" style="shape=umlActor;verticalLabelPosition=bottom;verticalAlign=top;html=1;" parent="1" vertex="1">
          <mxGeometry x="103" y="281" width="30" height="60" as="geometry" />
        </mxCell>
        <mxCell id="eX9ttQmv6U6JFkY7dbUk-46" value="" style="endArrow=open;endFill=1;endSize=12;html=1;rounded=0;exitX=0.5;exitY=0.5;exitDx=0;exitDy=0;exitPerimeter=0;entryX=0;entryY=0.5;entryDx=0;entryDy=0;" parent="1" source="eX9ttQmv6U6JFkY7dbUk-41" target="eX9ttQmv6U6JFkY7dbUk-7" edge="1">
          <mxGeometry width="160" relative="1" as="geometry">
            <mxPoint x="148" y="406" as="sourcePoint" />
            <mxPoint x="302" y="126" as="targetPoint" />
          </mxGeometry>
        </mxCell>
        <mxCell id="eX9ttQmv6U6JFkY7dbUk-47" value="" style="endArrow=open;endFill=1;endSize=12;html=1;rounded=0;exitX=0.5;exitY=0.5;exitDx=0;exitDy=0;exitPerimeter=0;entryX=0;entryY=0.5;entryDx=0;entryDy=0;" parent="1" source="eX9ttQmv6U6JFkY7dbUk-41" target="7ZTwOI0OKRjPQfFenhaX-3" edge="1">
          <mxGeometry width="160" relative="1" as="geometry">
            <mxPoint x="158" y="416" as="sourcePoint" />
            <mxPoint x="292" y="176" as="targetPoint" />
          </mxGeometry>
        </mxCell>
        <mxCell id="eX9ttQmv6U6JFkY7dbUk-48" value="Thống kê" style="ellipse;whiteSpace=wrap;html=1;" parent="1" vertex="1">
          <mxGeometry x="296" y="203" width="80" height="40" as="geometry" />
        </mxCell>
        <mxCell id="eX9ttQmv6U6JFkY7dbUk-49" value="" style="endArrow=open;endFill=1;endSize=12;html=1;rounded=0;entryX=0;entryY=0.5;entryDx=0;entryDy=0;exitX=0.5;exitY=0.5;exitDx=0;exitDy=0;exitPerimeter=0;" parent="1" source="eX9ttQmv6U6JFkY7dbUk-41" target="eX9ttQmv6U6JFkY7dbUk-48" edge="1">
          <mxGeometry width="160" relative="1" as="geometry">
            <mxPoint x="152" y="256" as="sourcePoint" />
            <mxPoint x="302" y="246" as="targetPoint" />
          </mxGeometry>
        </mxCell>
        <mxCell id="eX9ttQmv6U6JFkY7dbUk-50" value="include" style="html=1;verticalAlign=bottom;endArrow=open;dashed=1;endSize=8;curved=0;rounded=0;exitX=1;exitY=0.5;exitDx=0;exitDy=0;" parent="1" source="eX9ttQmv6U6JFkY7dbUk-12" edge="1">
          <mxGeometry relative="1" as="geometry">
            <mxPoint x="382" y="416" as="sourcePoint" />
            <mxPoint x="422" y="456" as="targetPoint" />
          </mxGeometry>
        </mxCell>
        <mxCell id="eX9ttQmv6U6JFkY7dbUk-55" value="include" style="html=1;verticalAlign=bottom;endArrow=open;dashed=1;endSize=8;curved=0;rounded=0;exitX=1;exitY=0.5;exitDx=0;exitDy=0;entryX=0;entryY=0.5;entryDx=0;entryDy=0;" parent="1" source="eX9ttQmv6U6JFkY7dbUk-7" target="eX9ttQmv6U6JFkY7dbUk-8" edge="1">
          <mxGeometry relative="1" as="geometry">
            <mxPoint x="422" y="456" as="sourcePoint" />
            <mxPoint x="474" y="492" as="targetPoint" />
          </mxGeometry>
        </mxCell>
        <mxCell id="eX9ttQmv6U6JFkY7dbUk-70" value="Xem bài viết" style="ellipse;whiteSpace=wrap;html=1;" parent="1" vertex="1">
          <mxGeometry x="561" y="476" width="80" height="40" as="geometry" />
        </mxCell>
        <mxCell id="eX9ttQmv6U6JFkY7dbUk-73" value="" style="endArrow=open;endFill=1;endSize=12;html=1;rounded=0;entryX=1;entryY=0.5;entryDx=0;entryDy=0;exitX=0.419;exitY=0.678;exitDx=0;exitDy=0;exitPerimeter=0;" parent="1" source="eX9ttQmv6U6JFkY7dbUk-4" target="eX9ttQmv6U6JFkY7dbUk-70" edge="1">
          <mxGeometry width="160" relative="1" as="geometry">
            <mxPoint x="747" y="386" as="sourcePoint" />
            <mxPoint x="652" y="376" as="targetPoint" />
          </mxGeometry>
        </mxCell>
        <mxCell id="eX9ttQmv6U6JFkY7dbUk-83" value="Quản lý bài viết" style="ellipse;whiteSpace=wrap;html=1;" parent="1" vertex="1">
          <mxGeometry x="296" y="376" width="80" height="40" as="geometry" />
        </mxCell>
        <mxCell id="7ZTwOI0OKRjPQfFenhaX-3" value="Quản lý bệnh" style="ellipse;whiteSpace=wrap;html=1;" vertex="1" parent="1">
          <mxGeometry x="296" y="316" width="80" height="40" as="geometry" />
        </mxCell>
        <mxCell id="7ZTwOI0OKRjPQfFenhaX-4" value="" style="endArrow=open;endFill=1;endSize=12;html=1;rounded=0;exitX=0.5;exitY=0.5;exitDx=0;exitDy=0;exitPerimeter=0;entryX=0;entryY=0.5;entryDx=0;entryDy=0;" edge="1" parent="1" source="eX9ttQmv6U6JFkY7dbUk-41" target="eX9ttQmv6U6JFkY7dbUk-12">
          <mxGeometry width="160" relative="1" as="geometry">
            <mxPoint x="130" y="400" as="sourcePoint" />
            <mxPoint x="306" y="346" as="targetPoint" />
          </mxGeometry>
        </mxCell>
        <mxCell id="7ZTwOI0OKRjPQfFenhaX-5" value="" style="endArrow=open;endFill=1;endSize=12;html=1;rounded=0;exitX=0.5;exitY=0.5;exitDx=0;exitDy=0;exitPerimeter=0;" edge="1" parent="1" source="eX9ttQmv6U6JFkY7dbUk-41" target="eX9ttQmv6U6JFkY7dbUk-83">
          <mxGeometry width="160" relative="1" as="geometry">
            <mxPoint x="140" y="410" as="sourcePoint" />
            <mxPoint x="316" y="356" as="targetPoint" />
          </mxGeometry>
        </mxCell>
        <mxCell id="7ZTwOI0OKRjPQfFenhaX-6" value="" style="endArrow=open;endFill=1;endSize=12;html=1;rounded=0;exitX=0.5;exitY=0.5;exitDx=0;exitDy=0;exitPerimeter=0;entryX=0;entryY=0.5;entryDx=0;entryDy=0;" edge="1" parent="1" source="eX9ttQmv6U6JFkY7dbUk-41" target="eX9ttQmv6U6JFkY7dbUk-11">
          <mxGeometry width="160" relative="1" as="geometry">
            <mxPoint x="150" y="420" as="sourcePoint" />
            <mxPoint x="326" y="366" as="targetPoint" />
          </mxGeometry>
        </mxCell>
        <mxCell id="7ZTwOI0OKRjPQfFenhaX-7" value="include" style="html=1;verticalAlign=bottom;endArrow=open;dashed=1;endSize=8;curved=0;rounded=0;exitX=1;exitY=0.5;exitDx=0;exitDy=0;" edge="1" parent="1" source="eX9ttQmv6U6JFkY7dbUk-83">
          <mxGeometry relative="1" as="geometry">
            <mxPoint x="386" y="524" as="sourcePoint" />
            <mxPoint x="420" y="451" as="targetPoint" />
          </mxGeometry>
        </mxCell>
        <mxCell id="7ZTwOI0OKRjPQfFenhaX-8" value="include" style="html=1;verticalAlign=bottom;endArrow=open;dashed=1;endSize=8;curved=0;rounded=0;exitX=1;exitY=0.5;exitDx=0;exitDy=0;entryX=0;entryY=0.5;entryDx=0;entryDy=0;" edge="1" parent="1" source="7ZTwOI0OKRjPQfFenhaX-3" target="eX9ttQmv6U6JFkY7dbUk-8">
          <mxGeometry relative="1" as="geometry">
            <mxPoint x="396" y="534" as="sourcePoint" />
            <mxPoint x="442" y="476" as="targetPoint" />
          </mxGeometry>
        </mxCell>
        <mxCell id="7ZTwOI0OKRjPQfFenhaX-9" value="include" style="html=1;verticalAlign=bottom;endArrow=open;dashed=1;endSize=8;curved=0;rounded=0;exitX=1;exitY=0.5;exitDx=0;exitDy=0;" edge="1" parent="1" source="eX9ttQmv6U6JFkY7dbUk-48">
          <mxGeometry relative="1" as="geometry">
            <mxPoint x="406" y="544" as="sourcePoint" />
            <mxPoint x="419" y="451" as="targetPoint" />
          </mxGeometry>
        </mxCell>
        <mxCell id="7ZTwOI0OKRjPQfFenhaX-10" value="Bác sĩ" style="shape=umlActor;verticalLabelPosition=bottom;verticalAlign=top;html=1;" vertex="1" parent="1">
          <mxGeometry x="103" y="478" width="30" height="60" as="geometry" />
        </mxCell>
        <mxCell id="7ZTwOI0OKRjPQfFenhaX-12" value="" style="endArrow=open;endFill=1;endSize=12;html=1;rounded=0;exitX=0.5;exitY=0.5;exitDx=0;exitDy=0;exitPerimeter=0;entryX=0;entryY=0.5;entryDx=0;entryDy=0;" edge="1" parent="1" source="7ZTwOI0OKRjPQfFenhaX-10" target="eX9ttQmv6U6JFkY7dbUk-11">
          <mxGeometry width="160" relative="1" as="geometry">
            <mxPoint x="128" y="321" as="sourcePoint" />
            <mxPoint x="306" y="524" as="targetPoint" />
          </mxGeometry>
        </mxCell>
        <mxCell id="7ZTwOI0OKRjPQfFenhaX-13" value="" style="endArrow=open;endFill=1;endSize=12;html=1;rounded=0;exitX=0.5;exitY=0.5;exitDx=0;exitDy=0;exitPerimeter=0;entryX=0;entryY=0.5;entryDx=0;entryDy=0;" edge="1" parent="1" source="7ZTwOI0OKRjPQfFenhaX-10" target="eX9ttQmv6U6JFkY7dbUk-12">
          <mxGeometry width="160" relative="1" as="geometry">
            <mxPoint x="138" y="331" as="sourcePoint" />
            <mxPoint x="316" y="534" as="targetPoint" />
          </mxGeometry>
        </mxCell>
        <mxCell id="7ZTwOI0OKRjPQfFenhaX-18" value="include" style="html=1;verticalAlign=bottom;endArrow=open;dashed=1;endSize=8;curved=0;rounded=0;exitX=0;exitY=0.5;exitDx=0;exitDy=0;entryX=1;entryY=0.5;entryDx=0;entryDy=0;" edge="1" parent="1" source="eX9ttQmv6U6JFkY7dbUk-9" target="eX9ttQmv6U6JFkY7dbUk-8">
          <mxGeometry relative="1" as="geometry">
            <mxPoint x="386" y="233" as="sourcePoint" />
            <mxPoint x="429" y="461" as="targetPoint" />
          </mxGeometry>
        </mxCell>
        <mxCell id="7ZTwOI0OKRjPQfFenhaX-19" value="include" style="html=1;verticalAlign=bottom;endArrow=open;dashed=1;endSize=8;curved=0;rounded=0;exitX=0;exitY=0.5;exitDx=0;exitDy=0;" edge="1" parent="1" source="eX9ttQmv6U6JFkY7dbUk-13">
          <mxGeometry relative="1" as="geometry">
            <mxPoint x="396" y="243" as="sourcePoint" />
            <mxPoint x="500" y="454" as="targetPoint" />
          </mxGeometry>
        </mxCell>
        <mxCell id="7ZTwOI0OKRjPQfFenhaX-20" value="include" style="html=1;verticalAlign=bottom;endArrow=open;dashed=1;endSize=8;curved=0;rounded=0;exitX=0;exitY=0.5;exitDx=0;exitDy=0;entryX=1;entryY=0.5;entryDx=0;entryDy=0;" edge="1" parent="1" source="eX9ttQmv6U6JFkY7dbUk-70" target="eX9ttQmv6U6JFkY7dbUk-8">
          <mxGeometry relative="1" as="geometry">
            <mxPoint x="406" y="253" as="sourcePoint" />
            <mxPoint x="449" y="481" as="targetPoint" />
          </mxGeometry>
        </mxCell>
      </root>
    </mxGraphModel>
  </diagram>
</mxfile>
